<svg width="224" height="28" viewBox="0 0 224 28" fill="none" xmlns="http://www.w3.org/2000/svg">
<path fill-rule="evenodd" clip-rule="evenodd" d="M27.7243 21.8965H12.7595C9.29395 21.8202 6.45851 18.3869 6.45851 14.0381C6.45851 9.68937 9.29395 6.17984 12.7595 6.10354H27.6456C28.1181 6.10354 28.512 5.72207 28.512 5.26431V0.839237C28.512 0.381471 28.1181 0 27.6456 0H12.6807C5.67089 0.0762943 0 6.33243 0 14.0381C0 21.7439 5.74965 28 12.8383 28H27.6456C28.1181 28 28.512 27.6185 28.512 27.1608V22.7357C28.512 22.2779 28.1181 21.8965 27.6456 21.8965H27.7243ZM73.3277 19.2262V12.97V9.84196C73.3277 7.32425 76.2419 6.02725 78.526 6.02725C80.8101 6.02725 83.7243 7.32425 83.7243 9.84196V27.0845C83.7243 27.5422 84.1181 27.9237 84.5907 27.9237H89.1589C89.6315 27.9237 90.0253 27.5422 90.0253 27.0845V8.69755C90.0253 8.62125 90.0253 8.54496 90.0253 8.46867C90.0253 3.81471 84.9058 0.0762943 78.526 0.0762943C72.1463 0.0762943 67.0267 3.81471 67.0267 8.46867C67.0267 8.54496 67.0267 8.62125 67.0267 8.69755V15.8692V18.0817C67.0267 20.5995 64.1125 21.8965 61.8284 21.8965C59.5443 21.8965 56.6301 20.5995 56.6301 18.0817V0.839237C56.6301 0.381471 56.2363 0 55.7637 0H51.1955C50.7229 0 50.3291 0.381471 50.3291 0.839237V18.0817C50.3291 20.5995 47.4149 21.8965 45.1308 21.8965C42.8467 21.8965 39.9325 20.5995 39.9325 18.0817V0.839237C39.9325 0.381471 39.5387 0 39.0661 0H34.4979C34.0253 0 33.6315 0.381471 33.6315 0.839237V19.2262C33.6315 19.3025 33.6315 19.3787 33.6315 19.455C33.6315 24.109 38.7511 27.8474 45.1308 27.8474C48.4388 27.8474 51.4318 26.8556 53.4796 25.1771C55.6062 26.7793 58.5204 27.8474 61.8284 27.8474C68.2082 27.8474 73.3277 24.109 73.3277 19.455C73.3277 19.3787 73.3277 19.3025 73.3277 19.2262ZM217.384 17.4714H202.262C201.789 17.4714 201.395 17.8529 201.395 18.3106V27.1608C201.395 27.6185 201.001 28 200.529 28H196.433C195.961 28 195.567 27.6185 195.567 27.1608V0.915531C195.567 0.457766 195.961 0.0762943 196.433 0.0762943H201.316H217.305C221.007 0.0762943 224 3.9673 224 8.77384C224 13.5804 221.007 17.4714 217.305 17.4714H217.384ZM202.262 11.4441H216.36C217.463 11.3678 218.329 10.2234 218.329 8.85014C218.329 7.40055 217.463 6.25613 216.36 6.25613H202.262C202.025 6.25613 201.868 6.33243 201.632 6.48501C201.474 6.6376 201.395 6.86649 201.395 7.09537V10.7575C201.395 10.9864 201.474 11.139 201.632 11.3678C201.789 11.5204 202.025 11.5967 202.262 11.5967V11.4441ZM184.776 11.4441H189.66C190.132 11.4441 190.526 11.8256 190.526 12.2834V15.8692C190.526 16.327 190.132 16.7084 189.66 16.7084H184.776H177.688H177.058H169.733C168.63 16.7847 167.764 17.9292 167.764 19.3025C167.764 20.752 168.63 21.8965 169.733 21.8965H184.698H189.581C190.053 21.8965 190.447 22.2779 190.447 22.7357V27.1608C190.447 27.6185 190.053 28 189.581 28H184.698H168.709C165.007 28 162.014 24.109 162.014 19.3025C162.014 17.3188 162.487 15.4877 163.353 14.0381C162.487 12.5886 162.014 10.7575 162.014 8.77384C162.014 3.9673 165.007 0.0762943 168.709 0.0762943H184.698H189.581C190.053 0.0762943 190.447 0.457766 190.447 0.915531V5.3406C190.447 5.79837 190.053 6.17984 189.581 6.17984H184.698H169.733C168.63 6.17984 167.764 7.40055 167.764 8.77384C167.764 10.2234 168.63 11.3678 169.733 11.3678H184.698L184.776 11.4441ZM134.368 10.6049V6.94278C134.368 6.7139 134.447 6.56131 134.605 6.33243C134.762 6.17984 134.999 6.10354 135.235 6.10354H149.333C150.436 6.10354 151.302 7.32425 151.302 8.69755C151.302 10.1471 150.436 11.2916 149.333 11.2916H135.235C134.999 11.2916 134.841 11.2153 134.605 11.0627C134.447 10.9101 134.368 10.6812 134.368 10.4523V10.6049ZM134.368 0.0762943H129.485C129.013 0.0762943 128.619 0.457766 128.619 0.915531V27.1608C128.619 27.6185 129.013 28 129.485 28H134.368H150.357C154.059 28 157.052 24.109 157.052 19.3025C157.052 17.3188 156.579 15.4877 155.713 14.0381C156.579 12.5886 157.052 10.7575 157.052 8.77384C157.052 3.9673 154.059 0.0762943 150.357 0.0762943H134.368ZM135.235 16.6322H149.333C150.436 16.7084 151.302 17.8529 151.302 19.2262C151.302 20.6758 150.436 21.8202 149.333 21.8202H135.235C134.999 21.8202 134.841 21.7439 134.605 21.5913C134.447 21.4387 134.368 21.2098 134.368 20.9809V17.3188C134.368 17.0899 134.447 16.9373 134.605 16.7084C134.762 16.5559 134.999 16.4796 135.235 16.4796V16.6322ZM116.883 10.6049H101.761C101.288 10.6049 100.895 10.2234 100.895 9.76567V0.915531C100.895 0.457766 100.501 0.0762943 100.028 0.0762943H95.9325C95.4599 0.0762943 95.0661 0.457766 95.0661 0.915531V27.1608C95.0661 27.6185 95.4599 28 95.9325 28H100.816H116.805C120.506 28 123.499 24.109 123.499 19.3025C123.499 14.4959 120.506 10.6049 116.805 10.6049H116.883ZM101.761 16.6322H115.859C116.962 16.7084 117.828 17.8529 117.828 19.2262C117.828 20.6758 116.962 21.8202 115.859 21.8202H101.761C101.525 21.8202 101.367 21.7439 101.131 21.5913C100.973 21.4387 100.895 21.2098 100.895 20.9809V17.3188C100.895 17.0899 100.973 16.9373 101.131 16.7084C101.288 16.5559 101.525 16.4796 101.761 16.4796V16.6322Z" fill="white"/>
</svg>
